<svg width="192" height="192" viewBox="0 0 192 192" xmlns="http://www.w3.org/2000/svg">
  <defs>
    <linearGradient id="favicon-gradient-192" x1="0%" y1="0%" x2="100%" y2="100%">
      <stop offset="0%" style="stop-color:#3B82F6;stop-opacity:1" />
      <stop offset="50%" style="stop-color:#8B5CF6;stop-opacity:1" />
      <stop offset="100%" style="stop-color:#EC4899;stop-opacity:1" />
    </linearGradient>
  </defs>
  
  <!-- Background circle -->
  <circle cx="96" cy="96" r="90" fill="url(#favicon-gradient-192)" />
  
  <!-- AI Brain symbol -->
  <g fill="white" opacity="0.9">
    <!-- Neural network nodes -->
    <circle cx="48" cy="60" r="9"/>
    <circle cx="96" cy="48" r="9"/>
    <circle cx="144" cy="60" r="9"/>
    <circle cx="48" cy="96" r="9"/>
    <circle cx="96" cy="96" r="12"/>
    <circle cx="144" cy="96" r="9"/>
    <circle cx="48" cy="132" r="9"/>
    <circle cx="96" cy="144" r="9"/>
    <circle cx="144" cy="132" r="9"/>
    
    <!-- Connections -->
    <line x1="48" y1="60" x2="96" y2="48" stroke="white" stroke-width="4.8" opacity="0.6"/>
    <line x1="96" y1="48" x2="144" y2="60" stroke="white" stroke-width="4.8" opacity="0.6"/>
    <line x1="48" y1="60" x2="48" y2="96" stroke="white" stroke-width="4.8" opacity="0.6"/>
    <line x1="96" y1="48" x2="96" y2="96" stroke="white" stroke-width="4.8" opacity="0.6"/>
    <line x1="144" y1="60" x2="144" y2="96" stroke="white" stroke-width="4.8" opacity="0.6"/>
    <line x1="48" y1="96" x2="96" y2="96" stroke="white" stroke-width="4.8" opacity="0.6"/>
    <line x1="96" y1="96" x2="144" y2="96" stroke="white" stroke-width="4.8" opacity="0.6"/>
    <line x1="48" y1="96" x2="48" y2="132" stroke="white" stroke-width="4.8" opacity="0.6"/>
    <line x1="96" y1="96" x2="96" y2="144" stroke="white" stroke-width="4.8" opacity="0.6"/>
    <line x1="144" y1="96" x2="144" y2="132" stroke="white" stroke-width="4.8" opacity="0.6"/>
    <line x1="48" y1="132" x2="96" y2="144" stroke="white" stroke-width="4.8" opacity="0.6"/>
    <line x1="96" y1="144" x2="144" y2="132" stroke="white" stroke-width="4.8" opacity="0.6"/>
  </g>
</svg>
