<svg width="16" height="16" viewBox="0 0 16 16" xmlns="http://www.w3.org/2000/svg">
  <defs>
    <linearGradient id="favicon-gradient-16" x1="0%" y1="0%" x2="100%" y2="100%">
      <stop offset="0%" style="stop-color:#3B82F6;stop-opacity:1" />
      <stop offset="50%" style="stop-color:#8B5CF6;stop-opacity:1" />
      <stop offset="100%" style="stop-color:#EC4899;stop-opacity:1" />
    </linearGradient>
  </defs>
  
  <!-- Background circle -->
  <circle cx="8" cy="8" r="7.5" fill="url(#favicon-gradient-16)" />
  
  <!-- AI symbol - simplified for 16x16 -->
  <g fill="white" opacity="0.9">
    <!-- Neural network nodes -->
    <circle cx="4" cy="5" r="0.8"/>
    <circle cx="8" cy="4" r="0.8"/>
    <circle cx="12" cy="5" r="0.8"/>
    <circle cx="4" cy="8" r="0.8"/>
    <circle cx="8" cy="8" r="1"/>
    <circle cx="12" cy="8" r="0.8"/>
    <circle cx="4" cy="11" r="0.8"/>
    <circle cx="8" cy="12" r="0.8"/>
    <circle cx="12" cy="11" r="0.8"/>
    
    <!-- Connections -->
    <line x1="4" y1="5" x2="8" y2="4" stroke="white" stroke-width="0.4" opacity="0.6"/>
    <line x1="8" y1="4" x2="12" y2="5" stroke="white" stroke-width="0.4" opacity="0.6"/>
    <line x1="4" y1="8" x2="8" y2="8" stroke="white" stroke-width="0.4" opacity="0.6"/>
    <line x1="8" y1="8" x2="12" y2="8" stroke="white" stroke-width="0.4" opacity="0.6"/>
    <line x1="4" y1="11" x2="8" y2="12" stroke="white" stroke-width="0.4" opacity="0.6"/>
    <line x1="8" y1="12" x2="12" y2="11" stroke="white" stroke-width="0.4" opacity="0.6"/>
  </g>
</svg>
