<svg width="32" height="32" viewBox="0 0 32 32" xmlns="http://www.w3.org/2000/svg">
  <defs>
    <linearGradient id="favicon-gradient" x1="0%" y1="0%" x2="100%" y2="100%">
      <stop offset="0%" style="stop-color:#3B82F6;stop-opacity:1" />
      <stop offset="50%" style="stop-color:#8B5CF6;stop-opacity:1" />
      <stop offset="100%" style="stop-color:#EC4899;stop-opacity:1" />
    </linearGradient>
  </defs>
  
  <!-- Background circle -->
  <circle cx="16" cy="16" r="15" fill="url(#favicon-gradient)" />
  
  <!-- AI Brain symbol -->
  <g fill="white" opacity="0.9">
    <!-- Neural network nodes -->
    <circle cx="8" cy="10" r="1.5"/>
    <circle cx="16" cy="8" r="1.5"/>
    <circle cx="24" cy="10" r="1.5"/>
    <circle cx="8" cy="16" r="1.5"/>
    <circle cx="16" cy="16" r="2"/>
    <circle cx="24" cy="16" r="1.5"/>
    <circle cx="8" cy="22" r="1.5"/>
    <circle cx="16" cy="24" r="1.5"/>
    <circle cx="24" cy="22" r="1.5"/>
    
    <!-- Connections -->
    <line x1="8" y1="10" x2="16" y2="8" stroke="white" stroke-width="0.8" opacity="0.6"/>
    <line x1="16" y1="8" x2="24" y2="10" stroke="white" stroke-width="0.8" opacity="0.6"/>
    <line x1="8" y1="10" x2="8" y2="16" stroke="white" stroke-width="0.8" opacity="0.6"/>
    <line x1="16" y1="8" x2="16" y2="16" stroke="white" stroke-width="0.8" opacity="0.6"/>
    <line x1="24" y1="10" x2="24" y2="16" stroke="white" stroke-width="0.8" opacity="0.6"/>
    <line x1="8" y1="16" x2="16" y2="16" stroke="white" stroke-width="0.8" opacity="0.6"/>
    <line x1="16" y1="16" x2="24" y2="16" stroke="white" stroke-width="0.8" opacity="0.6"/>
    <line x1="8" y1="16" x2="8" y2="22" stroke="white" stroke-width="0.8" opacity="0.6"/>
    <line x1="16" y1="16" x2="16" y2="24" stroke="white" stroke-width="0.8" opacity="0.6"/>
    <line x1="24" y1="16" x2="24" y2="22" stroke="white" stroke-width="0.8" opacity="0.6"/>
    <line x1="8" y1="22" x2="16" y2="24" stroke="white" stroke-width="0.8" opacity="0.6"/>
    <line x1="16" y1="24" x2="24" y2="22" stroke="white" stroke-width="0.8" opacity="0.6"/>
  </g>
</svg>
